<svg width="24" height="24" viewBox="0 0 24 24" fill="none" xmlns="http://www.w3.org/2000/svg">
  <g clip-path="url(#clip0_20047809_156626)">
    <circle cx="12" cy="12" r="12" fill="#EF4444" />
    <path opacity="0.5"
      d="M14.4235 11.7677L19.4235 6.72927C19.6543 6.4985 19.6543 6.15234 19.4235 5.92157L18.6543 5.11388C18.4235 4.88311 18.0774 4.88311 17.8466 5.11388L12.8081 10.1523C12.6543 10.3062 12.4235 10.3062 12.2697 10.1523L7.23122 5.07542C7.00045 4.84465 6.6543 4.84465 6.42353 5.07542L5.61584 5.88311C5.38507 6.11388 5.38507 6.46004 5.61584 6.69081L10.6543 11.7293C10.8081 11.8831 10.8081 12.1139 10.6543 12.2677L5.57737 17.3447C5.3466 17.5754 5.3466 17.9216 5.57737 18.1523L6.38507 18.96C6.61584 19.1908 6.96199 19.1908 7.19276 18.96L12.2312 13.9216C12.3851 13.7677 12.6158 13.7677 12.7697 13.9216L17.8081 18.96C18.0389 19.1908 18.3851 19.1908 18.6158 18.96L19.4235 18.1523C19.6543 17.9216 19.6543 17.5754 19.4235 17.3447L14.4235 12.3062C14.2697 12.1523 14.2697 11.9216 14.4235 11.7677Z"
      fill="white" />
  </g>
  <defs>
    <clipPath id="clip0_20047809_156626">
      <rect x="0.5" width="24" height="24" rx="12" fill="white" />
    </clipPath>
  </defs>
</svg>